<svg width="501" height="501" viewBox="0 0 501 501" fill="none" xmlns="http://www.w3.org/2000/svg">
    <rect x="3" y="3" width="495" height="495" rx="37" stroke="#BDBDBD" stroke-width="6"/>
    <path d="M112.312 322.02C112.312 323.691 112.031 325.152 111.469 326.402C110.906 327.645 110.109 328.594 109.078 329.25C108.047 329.906 106.844 330.234 105.469 330.234C104.125 330.234 102.934 329.906 101.895 329.25C100.855 328.586 100.047 327.645 99.4688 326.426C98.8984 325.199 98.6055 323.781 98.5898 322.172V320.941C98.5898 319.301 98.875 317.852 99.4453 316.594C100.016 315.336 100.82 314.375 101.859 313.711C102.906 313.039 104.102 312.703 105.445 312.703C106.812 312.703 108.016 313.035 109.055 313.699C110.102 314.355 110.906 315.312 111.469 316.57C112.031 317.82 112.312 319.277 112.312 320.941V322.02ZM110.074 320.918C110.074 318.895 109.668 317.344 108.855 316.266C108.043 315.18 106.906 314.637 105.445 314.637C104.023 314.637 102.902 315.18 102.082 316.266C101.27 317.344 100.852 318.844 100.828 320.766V322.02C100.828 323.98 101.238 325.523 102.059 326.648C102.887 327.766 104.023 328.324 105.469 328.324C106.922 328.324 108.047 327.797 108.844 326.742C109.641 325.68 110.051 324.16 110.074 322.184V320.918ZM117.398 317.32L117.469 318.914C118.438 317.695 119.703 317.086 121.266 317.086C123.945 317.086 125.297 318.598 125.32 321.621V330H123.152V321.609C123.145 320.695 122.934 320.02 122.52 319.582C122.113 319.145 121.477 318.926 120.609 318.926C119.906 318.926 119.289 319.113 118.758 319.488C118.227 319.863 117.812 320.355 117.516 320.965V330H115.348V317.32H117.398ZM133.676 328.465C134.449 328.465 135.125 328.23 135.703 327.762C136.281 327.293 136.602 326.707 136.664 326.004H138.715C138.676 326.73 138.426 327.422 137.965 328.078C137.504 328.734 136.887 329.258 136.113 329.648C135.348 330.039 134.535 330.234 133.676 330.234C131.949 330.234 130.574 329.66 129.551 328.512C128.535 327.355 128.027 325.777 128.027 323.777V323.414C128.027 322.18 128.254 321.082 128.707 320.121C129.16 319.16 129.809 318.414 130.652 317.883C131.504 317.352 132.508 317.086 133.664 317.086C135.086 317.086 136.266 317.512 137.203 318.363C138.148 319.215 138.652 320.32 138.715 321.68H136.664C136.602 320.859 136.289 320.188 135.727 319.664C135.172 319.133 134.484 318.867 133.664 318.867C132.562 318.867 131.707 319.266 131.098 320.062C130.496 320.852 130.195 321.996 130.195 323.496V323.906C130.195 325.367 130.496 326.492 131.098 327.281C131.699 328.07 132.559 328.465 133.676 328.465ZM146.414 330.234C144.695 330.234 143.297 329.672 142.219 328.547C141.141 327.414 140.602 325.902 140.602 324.012V323.613C140.602 322.355 140.84 321.234 141.316 320.25C141.801 319.258 142.473 318.484 143.332 317.93C144.199 317.367 145.137 317.086 146.145 317.086C147.793 317.086 149.074 317.629 149.988 318.715C150.902 319.801 151.359 321.355 151.359 323.379V324.281H142.77C142.801 325.531 143.164 326.543 143.859 327.316C144.562 328.082 145.453 328.465 146.531 328.465C147.297 328.465 147.945 328.309 148.477 327.996C149.008 327.684 149.473 327.27 149.871 326.754L151.195 327.785C150.133 329.418 148.539 330.234 146.414 330.234ZM146.145 318.867C145.27 318.867 144.535 319.188 143.941 319.828C143.348 320.461 142.98 321.352 142.84 322.5H149.191V322.336C149.129 321.234 148.832 320.383 148.301 319.781C147.77 319.172 147.051 318.867 146.145 318.867ZM163.98 326.824L166.934 317.32H169.254L164.156 331.957C163.367 334.066 162.113 335.121 160.395 335.121L159.984 335.086L159.176 334.934V333.176L159.762 333.223C160.496 333.223 161.066 333.074 161.473 332.777C161.887 332.48 162.227 331.938 162.492 331.148L162.973 329.859L158.449 317.32H160.816L163.98 326.824ZM170.438 323.543C170.438 322.301 170.68 321.184 171.164 320.191C171.656 319.199 172.336 318.434 173.203 317.895C174.078 317.355 175.074 317.086 176.191 317.086C177.918 317.086 179.312 317.684 180.375 318.879C181.445 320.074 181.98 321.664 181.98 323.648V323.801C181.98 325.035 181.742 326.145 181.266 327.129C180.797 328.105 180.121 328.867 179.238 329.414C178.363 329.961 177.355 330.234 176.215 330.234C174.496 330.234 173.102 329.637 172.031 328.441C170.969 327.246 170.438 325.664 170.438 323.695V323.543ZM172.617 323.801C172.617 325.207 172.941 326.336 173.59 327.188C174.246 328.039 175.121 328.465 176.215 328.465C177.316 328.465 178.191 328.035 178.84 327.176C179.488 326.309 179.812 325.098 179.812 323.543C179.812 322.152 179.48 321.027 178.816 320.168C178.16 319.301 177.285 318.867 176.191 318.867C175.121 318.867 174.258 319.293 173.602 320.145C172.945 320.996 172.617 322.215 172.617 323.801ZM192.527 328.746C191.684 329.738 190.445 330.234 188.812 330.234C187.461 330.234 186.43 329.844 185.719 329.062C185.016 328.273 184.66 327.109 184.652 325.57V317.32H186.82V325.512C186.82 327.434 187.602 328.395 189.164 328.395C190.82 328.395 191.922 327.777 192.469 326.543V317.32H194.637V330H192.574L192.527 328.746ZM211.723 328.746C210.879 329.738 209.641 330.234 208.008 330.234C206.656 330.234 205.625 329.844 204.914 329.062C204.211 328.273 203.855 327.109 203.848 325.57V317.32H206.016V325.512C206.016 327.434 206.797 328.395 208.359 328.395C210.016 328.395 211.117 327.777 211.664 326.543V317.32H213.832V330H211.77L211.723 328.746ZM227.848 323.801C227.848 325.73 227.406 327.285 226.523 328.465C225.641 329.645 224.445 330.234 222.938 330.234C221.398 330.234 220.188 329.746 219.305 328.77V334.875H217.137V317.32H219.117L219.223 318.727C220.105 317.633 221.332 317.086 222.902 317.086C224.426 317.086 225.629 317.66 226.512 318.809C227.402 319.957 227.848 321.555 227.848 323.602V323.801ZM225.68 323.555C225.68 322.125 225.375 320.996 224.766 320.168C224.156 319.34 223.32 318.926 222.258 318.926C220.945 318.926 219.961 319.508 219.305 320.672V326.73C219.953 327.887 220.945 328.465 222.281 328.465C223.32 328.465 224.145 328.055 224.754 327.234C225.371 326.406 225.68 325.18 225.68 323.555ZM232.969 330H230.801V312H232.969V330ZM235.875 323.543C235.875 322.301 236.117 321.184 236.602 320.191C237.094 319.199 237.773 318.434 238.641 317.895C239.516 317.355 240.512 317.086 241.629 317.086C243.355 317.086 244.75 317.684 245.812 318.879C246.883 320.074 247.418 321.664 247.418 323.648V323.801C247.418 325.035 247.18 326.145 246.703 327.129C246.234 328.105 245.559 328.867 244.676 329.414C243.801 329.961 242.793 330.234 241.652 330.234C239.934 330.234 238.539 329.637 237.469 328.441C236.406 327.246 235.875 325.664 235.875 323.695V323.543ZM238.055 323.801C238.055 325.207 238.379 326.336 239.027 327.188C239.684 328.039 240.559 328.465 241.652 328.465C242.754 328.465 243.629 328.035 244.277 327.176C244.926 326.309 245.25 325.098 245.25 323.543C245.25 322.152 244.918 321.027 244.254 320.168C243.598 319.301 242.723 318.867 241.629 318.867C240.559 318.867 239.695 319.293 239.039 320.145C238.383 320.996 238.055 322.215 238.055 323.801ZM257.965 330C257.84 329.75 257.738 329.305 257.66 328.664C256.652 329.711 255.449 330.234 254.051 330.234C252.801 330.234 251.773 329.883 250.969 329.18C250.172 328.469 249.773 327.57 249.773 326.484C249.773 325.164 250.273 324.141 251.273 323.414C252.281 322.68 253.695 322.312 255.516 322.312H257.625V321.316C257.625 320.559 257.398 319.957 256.945 319.512C256.492 319.059 255.824 318.832 254.941 318.832C254.168 318.832 253.52 319.027 252.996 319.418C252.473 319.809 252.211 320.281 252.211 320.836H250.031C250.031 320.203 250.254 319.594 250.699 319.008C251.152 318.414 251.762 317.945 252.527 317.602C253.301 317.258 254.148 317.086 255.07 317.086C256.531 317.086 257.676 317.453 258.504 318.188C259.332 318.914 259.762 319.918 259.793 321.199V327.035C259.793 328.199 259.941 329.125 260.238 329.812V330H257.965ZM254.367 328.348C255.047 328.348 255.691 328.172 256.301 327.82C256.91 327.469 257.352 327.012 257.625 326.449V323.848H255.926C253.27 323.848 251.941 324.625 251.941 326.18C251.941 326.859 252.168 327.391 252.621 327.773C253.074 328.156 253.656 328.348 254.367 328.348ZM262.664 323.555C262.664 321.609 263.125 320.047 264.047 318.867C264.969 317.68 266.176 317.086 267.668 317.086C269.152 317.086 270.328 317.594 271.195 318.609V312H273.363V330H271.371L271.266 328.641C270.398 329.703 269.191 330.234 267.645 330.234C266.176 330.234 264.977 329.633 264.047 328.43C263.125 327.227 262.664 325.656 262.664 323.719V323.555ZM264.832 323.801C264.832 325.238 265.129 326.363 265.723 327.176C266.316 327.988 267.137 328.395 268.184 328.395C269.559 328.395 270.562 327.777 271.195 326.543V320.719C270.547 319.523 269.551 318.926 268.207 318.926C267.145 318.926 266.316 319.336 265.723 320.156C265.129 320.977 264.832 322.191 264.832 323.801ZM290.52 330C290.395 329.75 290.293 329.305 290.215 328.664C289.207 329.711 288.004 330.234 286.605 330.234C285.355 330.234 284.328 329.883 283.523 329.18C282.727 328.469 282.328 327.57 282.328 326.484C282.328 325.164 282.828 324.141 283.828 323.414C284.836 322.68 286.25 322.312 288.07 322.312H290.18V321.316C290.18 320.559 289.953 319.957 289.5 319.512C289.047 319.059 288.379 318.832 287.496 318.832C286.723 318.832 286.074 319.027 285.551 319.418C285.027 319.809 284.766 320.281 284.766 320.836H282.586C282.586 320.203 282.809 319.594 283.254 319.008C283.707 318.414 284.316 317.945 285.082 317.602C285.855 317.258 286.703 317.086 287.625 317.086C289.086 317.086 290.23 317.453 291.059 318.188C291.887 318.914 292.316 319.918 292.348 321.199V327.035C292.348 328.199 292.496 329.125 292.793 329.812V330H290.52ZM286.922 328.348C287.602 328.348 288.246 328.172 288.855 327.82C289.465 327.469 289.906 327.012 290.18 326.449V323.848H288.48C285.824 323.848 284.496 324.625 284.496 326.18C284.496 326.859 284.723 327.391 285.176 327.773C285.629 328.156 286.211 328.348 286.922 328.348ZM297.797 317.32L297.867 318.914C298.836 317.695 300.102 317.086 301.664 317.086C304.344 317.086 305.695 318.598 305.719 321.621V330H303.551V321.609C303.543 320.695 303.332 320.02 302.918 319.582C302.512 319.145 301.875 318.926 301.008 318.926C300.305 318.926 299.688 319.113 299.156 319.488C298.625 319.863 298.211 320.355 297.914 320.965V330H295.746V317.32H297.797ZM317.297 330H315.129V317.32H317.297V330ZM314.953 313.957C314.953 313.605 315.059 313.309 315.27 313.066C315.488 312.824 315.809 312.703 316.23 312.703C316.652 312.703 316.973 312.824 317.191 313.066C317.41 313.309 317.52 313.605 317.52 313.957C317.52 314.309 317.41 314.602 317.191 314.836C316.973 315.07 316.652 315.188 316.23 315.188C315.809 315.188 315.488 315.07 315.27 314.836C315.059 314.602 314.953 314.309 314.953 313.957ZM322.816 317.32L322.875 318.727C323.805 317.633 325.059 317.086 326.637 317.086C328.41 317.086 329.617 317.766 330.258 319.125C330.68 318.516 331.227 318.023 331.898 317.648C332.578 317.273 333.379 317.086 334.301 317.086C337.082 317.086 338.496 318.559 338.543 321.504V330H336.375V321.633C336.375 320.727 336.168 320.051 335.754 319.605C335.34 319.152 334.645 318.926 333.668 318.926C332.863 318.926 332.195 319.168 331.664 319.652C331.133 320.129 330.824 320.773 330.738 321.586V330H328.559V321.691C328.559 319.848 327.656 318.926 325.852 318.926C324.43 318.926 323.457 319.531 322.934 320.742V330H320.766V317.32H322.816ZM349.652 330C349.527 329.75 349.426 329.305 349.348 328.664C348.34 329.711 347.137 330.234 345.738 330.234C344.488 330.234 343.461 329.883 342.656 329.18C341.859 328.469 341.461 327.57 341.461 326.484C341.461 325.164 341.961 324.141 342.961 323.414C343.969 322.68 345.383 322.312 347.203 322.312H349.312V321.316C349.312 320.559 349.086 319.957 348.633 319.512C348.18 319.059 347.512 318.832 346.629 318.832C345.855 318.832 345.207 319.027 344.684 319.418C344.16 319.809 343.898 320.281 343.898 320.836H341.719C341.719 320.203 341.941 319.594 342.387 319.008C342.84 318.414 343.449 317.945 344.215 317.602C344.988 317.258 345.836 317.086 346.758 317.086C348.219 317.086 349.363 317.453 350.191 318.188C351.02 318.914 351.449 319.918 351.48 321.199V327.035C351.48 328.199 351.629 329.125 351.926 329.812V330H349.652ZM346.055 328.348C346.734 328.348 347.379 328.172 347.988 327.82C348.598 327.469 349.039 327.012 349.312 326.449V323.848H347.613C344.957 323.848 343.629 324.625 343.629 326.18C343.629 326.859 343.855 327.391 344.309 327.773C344.762 328.156 345.344 328.348 346.055 328.348ZM354.363 323.555C354.363 321.578 354.82 320.008 355.734 318.844C356.648 317.672 357.859 317.086 359.367 317.086C360.914 317.086 362.121 317.633 362.988 318.727L363.094 317.32H365.074V329.695C365.074 331.336 364.586 332.629 363.609 333.574C362.641 334.52 361.336 334.992 359.695 334.992C358.781 334.992 357.887 334.797 357.012 334.406C356.137 334.016 355.469 333.48 355.008 332.801L356.133 331.5C357.062 332.648 358.199 333.223 359.543 333.223C360.598 333.223 361.418 332.926 362.004 332.332C362.598 331.738 362.895 330.902 362.895 329.824V328.734C362.027 329.734 360.844 330.234 359.344 330.234C357.859 330.234 356.656 329.637 355.734 328.441C354.82 327.246 354.363 325.617 354.363 323.555ZM356.543 323.801C356.543 325.23 356.836 326.355 357.422 327.176C358.008 327.988 358.828 328.395 359.883 328.395C361.25 328.395 362.254 327.773 362.895 326.531V320.742C362.23 319.531 361.234 318.926 359.906 318.926C358.852 318.926 358.027 319.336 357.434 320.156C356.84 320.977 356.543 322.191 356.543 323.801ZM373.617 330.234C371.898 330.234 370.5 329.672 369.422 328.547C368.344 327.414 367.805 325.902 367.805 324.012V323.613C367.805 322.355 368.043 321.234 368.52 320.25C369.004 319.258 369.676 318.484 370.535 317.93C371.402 317.367 372.34 317.086 373.348 317.086C374.996 317.086 376.277 317.629 377.191 318.715C378.105 319.801 378.562 321.355 378.562 323.379V324.281H369.973C370.004 325.531 370.367 326.543 371.062 327.316C371.766 328.082 372.656 328.465 373.734 328.465C374.5 328.465 375.148 328.309 375.68 327.996C376.211 327.684 376.676 327.27 377.074 326.754L378.398 327.785C377.336 329.418 375.742 330.234 373.617 330.234ZM373.348 318.867C372.473 318.867 371.738 319.188 371.145 319.828C370.551 320.461 370.184 321.352 370.043 322.5H376.395V322.336C376.332 321.234 376.035 320.383 375.504 319.781C374.973 319.172 374.254 318.867 373.348 318.867ZM381.012 333.398L379.781 332.555C380.516 331.531 380.898 330.477 380.93 329.391V327.434H383.051V329.133C383.051 329.922 382.855 330.711 382.465 331.5C382.082 332.289 381.598 332.922 381.012 333.398ZM394.102 330H391.934V317.32H394.102V330ZM391.758 313.957C391.758 313.605 391.863 313.309 392.074 313.066C392.293 312.824 392.613 312.703 393.035 312.703C393.457 312.703 393.777 312.824 393.996 313.066C394.215 313.309 394.324 313.605 394.324 313.957C394.324 314.309 394.215 314.602 393.996 314.836C393.777 315.07 393.457 315.188 393.035 315.188C392.613 315.188 392.293 315.07 392.074 314.836C391.863 314.602 391.758 314.309 391.758 313.957ZM400.523 314.25V317.32H402.891V318.996H400.523V326.859C400.523 327.367 400.629 327.75 400.84 328.008C401.051 328.258 401.41 328.383 401.918 328.383C402.168 328.383 402.512 328.336 402.949 328.242V330C402.379 330.156 401.824 330.234 401.285 330.234C400.316 330.234 399.586 329.941 399.094 329.355C398.602 328.77 398.355 327.938 398.355 326.859V318.996H396.047V317.32H398.355V314.25H400.523ZM186.129 355.012L188.566 345.32H190.734L187.043 358H185.285L182.203 348.391L179.203 358H177.445L173.766 345.32H175.922L178.418 354.812L181.371 345.32H183.117L186.129 355.012ZM195.305 358H193.137V345.32H195.305V358ZM192.961 341.957C192.961 341.605 193.066 341.309 193.277 341.066C193.496 340.824 193.816 340.703 194.238 340.703C194.66 340.703 194.98 340.824 195.199 341.066C195.418 341.309 195.527 341.605 195.527 341.957C195.527 342.309 195.418 342.602 195.199 342.836C194.98 343.07 194.66 343.188 194.238 343.188C193.816 343.188 193.496 343.07 193.277 342.836C193.066 342.602 192.961 342.309 192.961 341.957ZM201.141 358H198.973V340H201.141V358ZM206.977 358H204.809V340H206.977V358ZM224.238 358C224.113 357.75 224.012 357.305 223.934 356.664C222.926 357.711 221.723 358.234 220.324 358.234C219.074 358.234 218.047 357.883 217.242 357.18C216.445 356.469 216.047 355.57 216.047 354.484C216.047 353.164 216.547 352.141 217.547 351.414C218.555 350.68 219.969 350.312 221.789 350.312H223.898V349.316C223.898 348.559 223.672 347.957 223.219 347.512C222.766 347.059 222.098 346.832 221.215 346.832C220.441 346.832 219.793 347.027 219.27 347.418C218.746 347.809 218.484 348.281 218.484 348.836H216.305C216.305 348.203 216.527 347.594 216.973 347.008C217.426 346.414 218.035 345.945 218.801 345.602C219.574 345.258 220.422 345.086 221.344 345.086C222.805 345.086 223.949 345.453 224.777 346.188C225.605 346.914 226.035 347.918 226.066 349.199V355.035C226.066 356.199 226.215 357.125 226.512 357.812V358H224.238ZM220.641 356.348C221.32 356.348 221.965 356.172 222.574 355.82C223.184 355.469 223.625 355.012 223.898 354.449V351.848H222.199C219.543 351.848 218.215 352.625 218.215 354.18C218.215 354.859 218.441 355.391 218.895 355.773C219.348 356.156 219.93 356.348 220.641 356.348ZM240.176 351.801C240.176 353.73 239.734 355.285 238.852 356.465C237.969 357.645 236.773 358.234 235.266 358.234C233.727 358.234 232.516 357.746 231.633 356.77V362.875H229.465V345.32H231.445L231.551 346.727C232.434 345.633 233.66 345.086 235.23 345.086C236.754 345.086 237.957 345.66 238.84 346.809C239.73 347.957 240.176 349.555 240.176 351.602V351.801ZM238.008 351.555C238.008 350.125 237.703 348.996 237.094 348.168C236.484 347.34 235.648 346.926 234.586 346.926C233.273 346.926 232.289 347.508 231.633 348.672V354.73C232.281 355.887 233.273 356.465 234.609 356.465C235.648 356.465 236.473 356.055 237.082 355.234C237.699 354.406 238.008 353.18 238.008 351.555ZM248.203 358.234C246.484 358.234 245.086 357.672 244.008 356.547C242.93 355.414 242.391 353.902 242.391 352.012V351.613C242.391 350.355 242.629 349.234 243.105 348.25C243.59 347.258 244.262 346.484 245.121 345.93C245.988 345.367 246.926 345.086 247.934 345.086C249.582 345.086 250.863 345.629 251.777 346.715C252.691 347.801 253.148 349.355 253.148 351.379V352.281H244.559C244.59 353.531 244.953 354.543 245.648 355.316C246.352 356.082 247.242 356.465 248.32 356.465C249.086 356.465 249.734 356.309 250.266 355.996C250.797 355.684 251.262 355.27 251.66 354.754L252.984 355.785C251.922 357.418 250.328 358.234 248.203 358.234ZM247.934 346.867C247.059 346.867 246.324 347.188 245.73 347.828C245.137 348.461 244.77 349.352 244.629 350.5H250.98V350.336C250.918 349.234 250.621 348.383 250.09 347.781C249.559 347.172 248.84 346.867 247.934 346.867ZM263.496 358C263.371 357.75 263.27 357.305 263.191 356.664C262.184 357.711 260.98 358.234 259.582 358.234C258.332 358.234 257.305 357.883 256.5 357.18C255.703 356.469 255.305 355.57 255.305 354.484C255.305 353.164 255.805 352.141 256.805 351.414C257.812 350.68 259.227 350.312 261.047 350.312H263.156V349.316C263.156 348.559 262.93 347.957 262.477 347.512C262.023 347.059 261.355 346.832 260.473 346.832C259.699 346.832 259.051 347.027 258.527 347.418C258.004 347.809 257.742 348.281 257.742 348.836H255.562C255.562 348.203 255.785 347.594 256.23 347.008C256.684 346.414 257.293 345.945 258.059 345.602C258.832 345.258 259.68 345.086 260.602 345.086C262.062 345.086 263.207 345.453 264.035 346.188C264.863 346.914 265.293 347.918 265.324 349.199V355.035C265.324 356.199 265.473 357.125 265.77 357.812V358H263.496ZM259.898 356.348C260.578 356.348 261.223 356.172 261.832 355.82C262.441 355.469 262.883 355.012 263.156 354.449V351.848H261.457C258.801 351.848 257.473 352.625 257.473 354.18C257.473 354.859 257.699 355.391 258.152 355.773C258.605 356.156 259.188 356.348 259.898 356.348ZM274.852 347.266C274.523 347.211 274.168 347.184 273.785 347.184C272.363 347.184 271.398 347.789 270.891 349V358H268.723V345.32H270.832L270.867 346.785C271.578 345.652 272.586 345.086 273.891 345.086C274.312 345.086 274.633 345.141 274.852 345.25V347.266ZM284.977 346.855C285.938 345.676 287.188 345.086 288.727 345.086C291.406 345.086 292.758 346.598 292.781 349.621V358H290.613V349.609C290.605 348.695 290.395 348.02 289.98 347.582C289.574 347.145 288.938 346.926 288.07 346.926C287.367 346.926 286.75 347.113 286.219 347.488C285.688 347.863 285.273 348.355 284.977 348.965V358H282.809V340H284.977V346.855ZM301.289 358.234C299.57 358.234 298.172 357.672 297.094 356.547C296.016 355.414 295.477 353.902 295.477 352.012V351.613C295.477 350.355 295.715 349.234 296.191 348.25C296.676 347.258 297.348 346.484 298.207 345.93C299.074 345.367 300.012 345.086 301.02 345.086C302.668 345.086 303.949 345.629 304.863 346.715C305.777 347.801 306.234 349.355 306.234 351.379V352.281H297.645C297.676 353.531 298.039 354.543 298.734 355.316C299.438 356.082 300.328 356.465 301.406 356.465C302.172 356.465 302.82 356.309 303.352 355.996C303.883 355.684 304.348 355.27 304.746 354.754L306.07 355.785C305.008 357.418 303.414 358.234 301.289 358.234ZM301.02 346.867C300.145 346.867 299.41 347.188 298.816 347.828C298.223 348.461 297.855 349.352 297.715 350.5H304.066V350.336C304.004 349.234 303.707 348.383 303.176 347.781C302.645 347.172 301.926 346.867 301.02 346.867ZM314.883 347.266C314.555 347.211 314.199 347.184 313.816 347.184C312.395 347.184 311.43 347.789 310.922 349V358H308.754V345.32H310.863L310.898 346.785C311.609 345.652 312.617 345.086 313.922 345.086C314.344 345.086 314.664 345.141 314.883 345.25V347.266ZM321.914 358.234C320.195 358.234 318.797 357.672 317.719 356.547C316.641 355.414 316.102 353.902 316.102 352.012V351.613C316.102 350.355 316.34 349.234 316.816 348.25C317.301 347.258 317.973 346.484 318.832 345.93C319.699 345.367 320.637 345.086 321.645 345.086C323.293 345.086 324.574 345.629 325.488 346.715C326.402 347.801 326.859 349.355 326.859 351.379V352.281H318.27C318.301 353.531 318.664 354.543 319.359 355.316C320.062 356.082 320.953 356.465 322.031 356.465C322.797 356.465 323.445 356.309 323.977 355.996C324.508 355.684 324.973 355.27 325.371 354.754L326.695 355.785C325.633 357.418 324.039 358.234 321.914 358.234ZM321.645 346.867C320.77 346.867 320.035 347.188 319.441 347.828C318.848 348.461 318.48 349.352 318.34 350.5H324.691V350.336C324.629 349.234 324.332 348.383 323.801 347.781C323.27 347.172 322.551 346.867 321.645 346.867Z"
          fill="#BDBDBD"/>
    <g clip-path="url(#clip0)">
        <path d="M296.5 277C296.5 278.724 295.815 280.377 294.596 281.596C293.377 282.815 291.724 283.5 290 283.5H212C210.276 283.5 208.623 282.815 207.404 281.596C206.185 280.377 205.5 278.724 205.5 277V238C205.5 236.276 206.185 234.623 207.404 233.404C208.623 232.185 210.276 231.5 212 231.5H219.618C224.787 231.497 229.743 229.442 233.398 225.786L238.793 220.404C240.009 219.189 241.656 218.504 243.376 218.5H258.611C260.335 218.5 261.988 219.185 263.207 220.404L268.589 225.786C270.4 227.598 272.55 229.035 274.917 230.016C277.284 230.996 279.82 231.5 282.382 231.5H290C291.724 231.5 293.377 232.185 294.596 233.404C295.815 234.623 296.5 236.276 296.5 238V277ZM212 225C208.552 225 205.246 226.37 202.808 228.808C200.37 231.246 199 234.552 199 238V277C199 280.448 200.37 283.754 202.808 286.192C205.246 288.63 208.552 290 212 290H290C293.448 290 296.754 288.63 299.192 286.192C301.63 283.754 303 280.448 303 277V238C303 234.552 301.63 231.246 299.192 228.808C296.754 226.37 293.448 225 290 225H282.382C278.934 224.999 275.628 223.629 273.191 221.191L267.809 215.809C265.372 213.371 262.066 212.001 258.618 212H243.382C239.934 212.001 236.628 213.371 234.191 215.809L228.809 221.191C226.372 223.629 223.066 224.999 219.618 225H212Z"
              fill="#BDBDBD"/>
        <path d="M251 270.5C246.69 270.5 242.557 268.788 239.51 265.74C236.462 262.693 234.75 258.56 234.75 254.25C234.75 249.94 236.462 245.807 239.51 242.76C242.557 239.712 246.69 238 251 238C255.31 238 259.443 239.712 262.49 242.76C265.538 245.807 267.25 249.94 267.25 254.25C267.25 258.56 265.538 262.693 262.49 265.74C259.443 268.788 255.31 270.5 251 270.5ZM251 277C257.034 277 262.82 274.603 267.087 270.337C271.353 266.07 273.75 260.284 273.75 254.25C273.75 248.216 271.353 242.43 267.087 238.163C262.82 233.897 257.034 231.5 251 231.5C244.966 231.5 239.18 233.897 234.913 238.163C230.647 242.43 228.25 248.216 228.25 254.25C228.25 260.284 230.647 266.07 234.913 270.337C239.18 274.603 244.966 277 251 277V277ZM218.5 241.25C218.5 242.112 218.158 242.939 217.548 243.548C216.939 244.158 216.112 244.5 215.25 244.5C214.388 244.5 213.561 244.158 212.952 243.548C212.342 242.939 212 242.112 212 241.25C212 240.388 212.342 239.561 212.952 238.952C213.561 238.342 214.388 238 215.25 238C216.112 238 216.939 238.342 217.548 238.952C218.158 239.561 218.5 240.388 218.5 241.25V241.25Z"
              fill="#BDBDBD"/>
    </g>
    <defs>
        <clipPath id="clip0">
            <rect width="104" height="104" fill="white" transform="translate(199 199)"/>
        </clipPath>
    </defs>
</svg>
